<svg width="141" height="142" viewBox="0 0 141 142" fill="none" xmlns="http://www.w3.org/2000/svg">
<path d="M70.5 0.5C109.436 0.5 141 32.0639 141 71C141 109.936 109.436 141.5 70.5 141.5C31.5639 141.5 0 109.936 0 71C0 32.0639 31.5639 0.5 70.5 0.5ZM114.559 45.1924C112.5 43.3229 109.315 43.4759 107.445 45.5342L68.1025 88.8418C64.892 92.3758 59.2183 91.9646 56.5508 88.0049L40.2012 63.7314C38.6473 61.4252 35.5174 60.8146 33.2109 62.3682C30.9045 63.9218 30.2943 67.0518 31.8477 69.3584L48.1973 93.6309C54.5148 103.01 67.9526 103.984 75.5566 95.6143L114.9 52.3057C116.77 50.2471 116.617 47.0623 114.559 45.1924Z" fill="#27D16E"/>
</svg>
